<svg width="26" height="26" viewBox="0 0 26 26" fill="none" xmlns="http://www.w3.org/2000/svg">
<g clip-path="url(#clip0_59_1427)">
<path d="M13 0C5.82667 0 0 5.82667 0 13C0 20.1733 5.82667 26 13 26C20.1733 26 26 20.1733 26 13C26 5.82667 20.1733 0 13 0ZM13 24C6.93333 24 2 19.0667 2 13C2 6.93333 6.93333 2 13 2C19.0667 2 24 6.93333 24 13C24 19.0667 19.0667 24 13 24Z" fill="#da291c"/>
<path d="M13 15.3333C13.5467 15.3333 14 14.88 14 14.3333V7.66667C14 7.12001 13.5467 6.66667 13 6.66667C12.4533 6.66667 12 7.12001 12 7.66667V14.3333C12 14.88 12.4533 15.3333 13 15.3333Z" fill="#da291c"/>
<path d="M13 17.3333C12.4533 17.3333 12 17.7867 12 18.3333C12 18.88 12.4533 19.3333 13 19.3333C13.5467 19.3333 14 18.88 14 18.3333C14 17.7867 13.56 17.3333 13 17.3333Z" fill="#da291c"/>
</g>
<defs>
<clipPath id="clip0_59_1427">
<rect width="26" height="26" fill="white"/>
</clipPath>
</defs>
</svg>
