<svg width="31" height="22" viewBox="0 0 31 22" fill="none" xmlns="http://www.w3.org/2000/svg">
<path d="M28.9428 8.32348C26.7594 5.96 22.0541 2 14.9808 2C7.90748 2 3.27909 5.91304 1.09559 8.24522C-0.365197 9.81043 -0.365197 12.1896 1.09559 13.7704C3.26371 16.1026 7.96899 20.0157 14.9808 20.0157C21.9926 20.0157 26.7594 16.0557 28.9428 13.6922C30.3575 12.1583 30.3575 9.85739 28.9428 8.32348ZM27.2668 12.08C25.3447 14.1617 21.193 17.6522 14.9962 17.6522C8.79933 17.6522 4.69375 14.193 2.77166 12.1426C2.15659 11.4852 2.15659 10.5148 2.77166 9.85739C4.69375 7.80696 8.83009 4.34783 14.9808 4.34783C21.1315 4.34783 25.3293 7.83826 27.2514 9.92C27.8203 10.5304 27.8203 11.4539 27.2514 12.0643L27.2668 12.08Z" fill="#B4B4B4"/>
<path d="M14.9981 6.6958C12.6609 6.6958 10.7695 8.62102 10.7695 11.0001C10.7695 13.3793 12.6609 15.3045 14.9981 15.3045C17.3354 15.3045 19.2267 13.3793 19.2267 11.0001C19.2267 8.62102 17.3354 6.6958 14.9981 6.6958ZM14.9981 12.9567C13.9371 12.9567 13.076 12.0801 13.076 11.0001C13.076 9.92015 13.9371 9.04363 14.9981 9.04363C16.0591 9.04363 16.9202 9.92015 16.9202 11.0001C16.9202 12.0801 16.0591 12.9567 14.9981 12.9567Z" fill="#B4B4B4"/>
<path d="M24 2L6 20" stroke="#B4B4B4" stroke-width="3" stroke-linecap="round"/>
</svg>
