<svg width="30" height="12" viewBox="0 0 30 12" fill="none" xmlns="http://www.w3.org/2000/svg">
<path d="M29.9077 5.07819C29.8462 4.946 29.7692 4.8285 29.6615 4.72569L25.0462 0.319452C24.6 -0.106484 23.8615 -0.106484 23.4154 0.319452C22.9692 0.745388 22.9692 1.45039 23.4154 1.87632L26.0615 4.40257H1.15385C0.523077 4.40257 0 4.90194 0 5.50412C0 6.10631 0.523077 6.60568 1.15385 6.60568H26.0615L23.4154 9.13193C22.9692 9.55786 22.9692 10.2629 23.4154 10.6888C23.6462 10.9091 23.9385 11.0119 24.2308 11.0119C24.5231 11.0119 24.8154 10.9091 25.0462 10.6888L29.6615 6.28256C29.7692 6.17975 29.8462 6.06225 29.9077 5.93006C30.0308 5.66569 30.0308 5.35725 29.9077 5.09288V5.07819Z" fill="white"/>
</svg>
