<svg width="26" height="26" viewBox="0 0 26 26" fill="none" xmlns="http://www.w3.org/2000/svg">
<g clip-path="url(#clip0_59_1444)">
<path d="M13 0C5.82667 0 0 5.82667 0 13C0 20.1733 5.82667 26 13 26C20.1733 26 26 20.1733 26 13C26 5.82667 20.1733 0 13 0ZM13 24C6.93333 24 2 19.0667 2 13C2 6.93333 6.93333 2 13 2C19.0667 2 24 6.93333 24 13C24 19.0667 19.0667 24 13 24Z" fill="#0097a9"/>
<path d="M14.9596 14.4267L11.773 17.68C11.573 17.88 11.3196 17.9733 11.0663 17.9733C10.813 17.9733 10.5596 17.88 10.3596 17.68L9.6263 16.9333L6.33297 13.64C5.9463 13.2533 5.9463 12.6133 6.33297 12.2267C6.71964 11.84 7.35964 11.84 7.7463 12.2267L11.0396 15.52L18.253 8.30666C18.6396 7.92 19.2796 7.92 19.6663 8.30666C20.053 8.69333 20.053 9.33333 19.6663 9.72L16.373 13.0133L14.9596 14.4267Z" fill="#0097a9"/>
</g>
<defs>
<clipPath id="clip0_59_1444">
<rect width="26" height="26" fill="white"/>
</clipPath>
</defs>
</svg>
