<svg width="30" height="12" viewBox="0 0 30 12" fill="none" xmlns="http://www.w3.org/2000/svg">
<path d="M0.0923061 5.07819C0.153845 4.946 0.230768 4.8285 0.338459 4.72569L4.95384 0.319452C5.4 -0.106484 6.13846 -0.106484 6.58461 0.319452C7.03077 0.745388 7.03077 1.45039 6.58461 1.87632L3.93846 4.40257H28.8462C29.4769 4.40257 30 4.90194 30 5.50412C30 6.10631 29.4769 6.60568 28.8462 6.60568H3.93846L6.58461 9.13193C7.03077 9.55786 7.03077 10.2629 6.58461 10.6888C6.35385 10.9091 6.06154 11.0119 5.76923 11.0119C5.47692 11.0119 5.18461 10.9091 4.95384 10.6888L0.338459 6.28256C0.230768 6.17975 0.153845 6.06225 0.0923061 5.93006C-0.0307713 5.66569 -0.0307713 5.35725 0.0923061 5.09288V5.07819Z" fill="#0097A9"/>
</svg>
