<svg width="34" height="24" viewBox="0 0 34 24" fill="none" xmlns="http://www.w3.org/2000/svg">
<g filter="url(#filter0_d_48_317)">
<path d="M28.9476 5.79005C27.0672 3.78595 23.0151 0.428101 16.9237 0.428101C10.8323 0.428101 6.83312 3.74615 4.96597 5.7237C3.70796 7.05092 3.70796 9.06829 4.96597 10.4088C6.83312 12.3863 10.8852 15.7044 16.9237 15.7044C22.9621 15.7044 27.0672 12.3465 28.9476 10.3424C30.1659 9.04174 30.1659 7.09072 28.9476 5.79005ZM27.5042 8.97538C25.8489 10.7406 22.2735 13.7003 16.9369 13.7003C11.6003 13.7003 8.07787 10.7671 6.4226 9.02846C5.89291 8.47103 5.89291 7.64817 6.4226 7.09074C8.07787 5.35208 11.64 2.41893 16.9369 2.41893C22.2338 2.41893 25.8489 5.37862 27.5042 7.14382C27.9941 7.66143 27.9941 8.44448 27.5042 8.9621V8.97538Z" fill="#444444"/>
<path d="M16.937 4.40976C14.9242 4.40976 13.2954 6.04223 13.2954 8.0596C13.2954 10.077 14.9242 11.7094 16.937 11.7094C18.9498 11.7094 20.5786 10.077 20.5786 8.0596C20.5786 6.04223 18.9498 4.40976 16.937 4.40976ZM16.937 9.71862C16.0233 9.71862 15.2817 8.97538 15.2817 8.0596C15.2817 7.14382 16.0233 6.40058 16.937 6.40058C17.8507 6.40058 18.5923 7.14382 18.5923 8.0596C18.5923 8.97538 17.8507 9.71862 16.937 9.71862Z" fill="#444444"/>
</g>
<defs>
<filter id="filter0_d_48_317" x="0.0224609" y="0.428101" width="33.8389" height="23.2763" filterUnits="userSpaceOnUse" color-interpolation-filters="sRGB">
<feFlood flood-opacity="0" result="BackgroundImageFix"/>
<feColorMatrix in="SourceAlpha" type="matrix" values="0 0 0 0 0 0 0 0 0 0 0 0 0 0 0 0 0 0 127 0" result="hardAlpha"/>
<feOffset dy="4"/>
<feGaussianBlur stdDeviation="2"/>
<feComposite in2="hardAlpha" operator="out"/>
<feColorMatrix type="matrix" values="0 0 0 0 0 0 0 0 0 0 0 0 0 0 0 0 0 0 0.25 0"/>
<feBlend mode="normal" in2="BackgroundImageFix" result="effect1_dropShadow_48_317"/>
<feBlend mode="normal" in="SourceGraphic" in2="effect1_dropShadow_48_317" result="shape"/>
</filter>
</defs>
</svg>
