<svg width="26" height="27" viewBox="0 0 26 27" fill="none" xmlns="http://www.w3.org/2000/svg">
<path d="M22.0896 3.49223H18.9434L15.3078 0.765564C13.9515 -0.255188 12.0498 -0.255188 10.6935 0.765564L7.05793 3.49223H3.91178C2.1779 3.49223 0.765625 4.9045 0.765625 6.63838C0.765625 8.37226 2.1779 9.78454 3.91178 9.78454H22.0896C23.8234 9.78454 25.2357 8.37226 25.2357 6.63838C25.2357 4.9045 23.8234 3.49223 22.0896 3.49223ZM11.9519 2.44351C12.5672 1.98208 13.4341 1.98208 14.0494 2.44351L15.4477 3.49223H10.5537L11.9519 2.44351ZM22.0896 7.6871H3.91178C3.33848 7.6871 2.86306 7.21168 2.86306 6.63838C2.86306 6.06508 3.33848 5.58966 3.91178 5.58966H22.0896C22.6628 5.58966 23.1383 6.06508 23.1383 6.63838C23.1383 7.21168 22.6628 7.6871 22.0896 7.6871Z" fill="#B4B4B4"/>
<path d="M22.2591 11.8978C21.6858 11.7999 21.1545 12.1915 21.0566 12.7648L19.5465 21.8397C19.2948 23.3638 17.9944 24.4684 16.4422 24.4684H9.56266C8.02454 24.4684 6.71015 23.3638 6.45846 21.8397L4.9483 12.7648C4.85042 12.1915 4.30509 11.8139 3.74578 11.8978C3.17248 11.9957 2.79494 12.541 2.87884 13.1003L4.38899 22.1753C4.80848 24.7201 6.98981 26.5519 9.56266 26.5519H16.4422C19.0151 26.5519 21.1964 24.7062 21.6159 22.1753L23.1261 13.1003C23.224 12.527 22.8324 11.9957 22.2591 11.8978Z" fill="#B4B4B4"/>
<path d="M9.95696 20.9671C9.95696 20.9671 10.0688 20.9671 10.1248 20.9671C10.6981 20.8692 11.0756 20.3239 10.9917 19.7646L9.83112 12.7731C9.73324 12.1998 9.20189 11.8223 8.62859 11.9062C8.05529 12.0041 7.67775 12.5494 7.76165 13.1087L8.92223 20.1002C9.00613 20.6175 9.45358 20.9811 9.95696 20.9811V20.9671Z" fill="#B4B4B4"/>
<path d="M16.0419 20.9727C16.5453 20.9727 16.9928 20.6092 17.0767 20.0918L18.2372 13.1003C18.3351 12.527 17.9436 11.9957 17.3703 11.8978C16.797 11.7999 16.2657 12.1915 16.1678 12.7648L15.0072 19.7562C14.9093 20.3295 15.3008 20.8609 15.8741 20.9587C15.9301 20.9587 15.986 20.9587 16.0419 20.9587V20.9727Z" fill="#B4B4B4"/>
</svg>
