<svg width="26" height="26" viewBox="0 0 26 26" fill="none" xmlns="http://www.w3.org/2000/svg">
<path d="M24.1202 1.86505C22.9126 0.657464 21.3159 0 19.6119 0C17.9078 0 16.3111 0.657464 15.1035 1.86505L2.39705 14.5715C1.87377 15.0948 1.52491 15.7389 1.39073 16.4634L0.0489676 23.1857C-0.112044 23.9639 0.129473 24.7555 0.693014 25.3056C1.1358 25.7484 1.73959 25.9899 2.3568 25.9899C2.50439 25.9899 2.66541 25.9765 2.813 25.9497L9.53523 24.6079C10.2464 24.4603 10.9038 24.1115 11.4271 23.6016L24.1336 10.8951C25.3412 9.68753 25.9987 8.09083 25.9987 6.38679C25.9987 4.68275 25.3412 3.08605 24.1336 1.87847L24.1202 1.86505ZM2.41047 23.9639C2.26288 23.9907 2.15554 23.9236 2.10186 23.87C2.04819 23.8163 1.98111 23.7224 2.00794 23.5614L3.14844 17.8857L8.08613 22.8234L2.41047 23.9639ZM22.6979 9.45943L10.1256 22.0317L3.9535 15.8596L16.5258 3.28732C17.3711 2.44201 18.4982 2.01264 19.6119 2.01264C20.7255 2.01264 21.8392 2.44201 22.6979 3.28732C24.402 4.99136 24.402 7.75539 22.6979 9.45943Z" fill="white"/>
</svg>
