<svg width="33" height="34" viewBox="0 0 33 34" fill="none" xmlns="http://www.w3.org/2000/svg">
<path d="M29.1779 8.78146L21.8422 2.21949C18.5411 -0.73983 13.5528 -0.73983 10.2517 2.21949L2.91595 8.78146C1.06368 10.4357 0 12.8069 0 15.3067V26.9969C0 30.8569 3.08101 34 6.87726 34H25.2166C29.0129 34 32.0939 30.8569 32.0939 26.9969V15.3067C32.0939 12.8252 31.0302 10.4357 29.1779 8.78146ZM20.1733 31.2245H11.9206V25.2507C11.9206 22.9715 13.7729 21.115 16.0469 21.115C18.321 21.115 20.1733 22.9715 20.1733 25.2507V31.2245ZM29.343 26.9785C29.343 29.3129 27.4907 31.2245 25.2166 31.2245H22.9242V25.2507C22.9242 21.4459 19.8432 18.3579 16.0469 18.3579C12.2507 18.3579 9.16968 21.4459 9.16968 25.2507V31.2245H6.87726C4.60318 31.2245 2.7509 29.3313 2.7509 26.9785V15.2883C2.7509 13.5789 3.48447 11.9613 4.74989 10.8217L12.0856 4.25976C14.3414 2.23787 17.7525 2.23787 20.0083 4.25976L27.344 10.8217C28.6094 11.9613 29.343 13.5789 29.343 15.2883V26.9785Z" fill="#EF3829"/>
</svg>
