<svg width="36" height="35" viewBox="0 0 36 35" fill="none" xmlns="http://www.w3.org/2000/svg">
<g clip-path="url(#clip0_944_5630)">
<path d="M34.8776 16.4064H20.6277C20.4771 16.4107 20.3272 16.3857 20.1868 16.3327C20.0464 16.2797 19.9184 16.1999 19.8103 16.0979C19.7022 15.9959 19.6163 15.8739 19.5577 15.739C19.499 15.6042 19.4688 15.4592 19.4688 15.3128C19.4688 15.1664 19.499 15.0215 19.5577 14.8866C19.6163 14.7517 19.7022 14.6297 19.8103 14.5277C19.9184 14.4257 20.0464 14.3459 20.1868 14.2929C20.3272 14.2399 20.4771 14.2149 20.6277 14.2192H34.8776C35.1701 14.2277 35.4476 14.3467 35.6514 14.5508C35.8552 14.755 35.9692 15.0283 35.9692 15.3128C35.9692 15.5973 35.8552 15.8706 35.6514 16.0748C35.4476 16.2789 35.1701 16.3979 34.8776 16.4064Z" fill="#B4B4B4"/>
<path d="M29.2494 21.8748C29.0269 21.8746 28.8094 21.8103 28.6245 21.69C28.4396 21.5698 28.2955 21.3989 28.2105 21.199C28.1254 20.9991 28.1032 20.7792 28.1467 20.5671C28.1901 20.3549 28.2973 20.16 28.4546 20.0071L33.2843 15.3115L28.4546 10.6158C28.3501 10.5142 28.2672 10.3936 28.2107 10.2609C28.1541 10.1281 28.125 9.98585 28.125 9.84216C28.125 9.69848 28.1541 9.5562 28.2107 9.42346C28.2672 9.29072 28.3501 9.1701 28.4546 9.0685C28.5591 8.96691 28.6832 8.88631 28.8197 8.83133C28.9563 8.77635 29.1026 8.74805 29.2504 8.74805C29.3981 8.74805 29.5445 8.77635 29.681 8.83133C29.8175 8.88631 29.9416 8.96691 30.0461 9.0685L35.6725 14.5388C35.777 14.6404 35.8599 14.761 35.9165 14.8937C35.973 15.0265 36.0022 15.1687 36.0022 15.3124C36.0022 15.4561 35.973 15.5984 35.9165 15.7311C35.8599 15.8639 35.777 15.9845 35.6725 16.0861L30.0461 21.5564C29.9419 21.6588 29.8178 21.74 29.681 21.7954C29.5443 21.8507 29.3975 21.879 29.2494 21.8787V21.8748Z" fill="#B4B4B4"/>
<path d="M11.9993 35C11.6839 35.0012 11.3701 34.9554 11.069 34.8642L2.04259 31.9406C1.44792 31.7417 0.931716 31.3677 0.565671 30.8706C0.199626 30.3734 0.0019149 29.7778 0 29.1664L0 2.91685C0.000797954 2.1435 0.317134 1.40204 0.879585 0.855196C1.44204 0.308353 2.20466 0.000795899 3.00008 2.00881e-05C3.31551 -0.00110075 3.62926 0.0446886 3.93045 0.1358L12.9608 3.05947C13.5548 3.25899 14.0701 3.63325 14.4354 4.13035C14.8007 4.62745 14.9978 5.22275 14.9994 5.83368V32.0832C14.9986 32.8565 14.6823 33.598 14.1198 34.1448C13.5574 34.6917 12.7948 34.9992 11.9993 35ZM3.00008 2.18715C2.8012 2.18767 2.6106 2.26471 2.46997 2.40145C2.32933 2.53818 2.25009 2.72348 2.24956 2.91685V29.1664C2.2522 29.3211 2.30349 29.4713 2.39653 29.5969C2.48956 29.7224 2.61989 29.8173 2.77 29.8687L11.7542 32.7797C11.8337 32.8025 11.9164 32.8134 11.9993 32.8119C12.198 32.8111 12.3884 32.734 12.5288 32.5973C12.6692 32.4606 12.7483 32.2754 12.7488 32.0822V5.83368C12.7462 5.67896 12.6949 5.52873 12.6019 5.40318C12.5088 5.27762 12.3785 5.18276 12.2284 5.13133L3.24423 2.21939C3.165 2.19666 3.08268 2.18579 3.00008 2.18715Z" fill="#B4B4B4"/>
<path d="M22.8772 11.6673C22.5788 11.6673 22.2926 11.5521 22.0815 11.3469C21.8705 11.1417 21.752 10.8634 21.752 10.5733V4.01186C21.7512 3.52867 21.5534 3.06549 21.202 2.72382C20.8505 2.38215 20.3741 2.18986 19.8771 2.18909H2.99791C2.70542 2.18059 2.42784 2.06165 2.22404 1.85749C2.02024 1.65333 1.90625 1.38002 1.90625 1.09552C1.90625 0.811019 2.02024 0.537706 2.22404 0.33355C2.42784 0.129395 2.70542 0.0104533 2.99791 0.00195312H19.8771C20.9708 0.00298798 22.0194 0.425926 22.7927 1.17792C23.566 1.92991 24.0007 2.94949 24.0015 4.01284V10.5752C24.001 10.8649 23.8823 11.1425 23.6716 11.3472C23.4608 11.5519 23.1752 11.6671 22.8772 11.6673Z" fill="#B4B4B4"/>
<path d="M19.8778 30.6248H13.8776C13.7271 30.6292 13.5772 30.6041 13.4368 30.5511C13.2964 30.4981 13.1684 30.4183 13.0603 30.3163C12.9522 30.2143 12.8663 30.0923 12.8077 29.9574C12.749 29.8226 12.7188 29.6777 12.7188 29.5312C12.7188 29.3848 12.749 29.2399 12.8077 29.105C12.8663 28.9702 12.9522 28.8481 13.0603 28.7462C13.1684 28.6442 13.2964 28.5643 13.4368 28.5113C13.5772 28.4583 13.7271 28.4333 13.8776 28.4377H19.8778C20.3748 28.4369 20.8512 28.2446 21.2026 27.9029C21.554 27.5613 21.7518 27.0981 21.7526 26.6149V20.0525C21.7481 19.9061 21.7739 19.7604 21.8284 19.6239C21.8829 19.4874 21.965 19.3629 22.0699 19.2578C22.1748 19.1528 22.3003 19.0692 22.439 19.0122C22.5777 18.9552 22.7268 18.9258 22.8774 18.9258C23.028 18.9258 23.1771 18.9552 23.3158 19.0122C23.4545 19.0692 23.58 19.1528 23.6849 19.2578C23.7898 19.3629 23.8719 19.4874 23.9264 19.6239C23.9809 19.7604 24.0067 19.9061 24.0022 20.0525V26.6149C24.0011 27.6781 23.5662 28.6974 22.793 29.4492C22.0198 30.201 20.9713 30.6238 19.8778 30.6248Z" fill="#B4B4B4"/>
</g>
<defs>
<clipPath id="clip0_944_5630">
<rect width="36" height="35" fill="white"/>
</clipPath>
</defs>
</svg>
