<svg width="100" height="37" viewBox="0 0 100 37" fill="none" xmlns="http://www.w3.org/2000/svg">
<g clip-path="url(#clip0_793_3589)">
<path d="M74.6473 16.5078C71.9566 16.5078 69.6344 17.493 67.7211 19.506C65.7562 21.518 64.8047 23.9499 64.8047 26.7594C64.8047 29.5688 65.7562 31.9998 67.7211 33.9598C69.6344 35.9728 71.9566 36.9995 74.6473 36.9995C77.338 36.9995 79.7118 35.9728 81.6655 33.9598C83.5788 31.9998 84.5405 29.5678 84.5405 26.7594C84.5405 23.951 83.5788 21.519 81.6655 19.506C79.7118 17.4941 77.338 16.5078 74.6473 16.5078ZM78.3401 30.5427C77.338 31.6223 76.1101 32.1252 74.6473 32.1252C73.2695 32.1501 71.9454 31.5746 71.005 30.5427C70.0018 29.4631 69.4501 28.2051 69.4501 26.748C69.4299 25.3044 69.9927 23.9157 71.005 22.9118C72.0072 21.8322 73.2351 21.3188 74.6473 21.3707C76.1101 21.3178 77.338 21.8426 78.3816 22.9118C79.3433 23.9385 79.8444 25.2069 79.896 26.748C79.8687 28.1698 79.312 29.5274 78.3412 30.5427" fill="#A7A7A7"/>
<path d="M12.2164 16.3294C13.6792 16.3294 14.9992 16.7484 16.2778 17.5874C17.4318 18.4077 18.3581 19.5195 18.9685 20.8158H23.9409C23.2141 18.1007 21.7928 15.8586 19.6538 14.1287C17.4642 12.347 14.9577 11.4561 12.2154 11.508C8.7979 11.4665 5.96447 12.682 3.60075 15.1979C1.18641 17.6818 0 20.6271 0 24.1386C0 27.6502 1.18642 30.6474 3.60176 33.1218C6.01711 35.5963 8.79891 36.7693 12.2164 36.7693C14.9587 36.7693 17.4652 35.9303 19.6548 34.1911C21.8029 32.4094 23.2151 30.219 23.9419 27.504H18.9695C18.3449 28.7899 17.4207 29.8996 16.2788 30.7324C15.0003 31.5289 13.6802 31.9479 12.2174 31.9479C10.12 31.9479 8.34034 31.1514 6.88667 29.6528C5.3824 28.1117 4.65658 26.2885 4.69707 24.1397C4.65658 21.9908 5.3824 20.1676 6.88667 18.6265C8.34945 17.1176 10.12 16.3315 12.2174 16.3315" fill="#A7A7A7"/>
<path d="M47.8337 17.7243C46.1867 16.8334 44.3655 16.4144 42.3187 16.4559C39.1269 16.403 36.8958 17.2939 35.6173 19.0341C34.7983 20.1033 34.3893 21.5179 34.2466 23.2893H38.9943C39.0864 22.4503 39.3628 21.8851 39.6796 21.5076C40.1807 20.8469 40.9997 20.5223 42.1861 20.5752C43.1882 20.5223 43.9657 20.7111 44.5083 21.0471C45.0509 21.3302 45.2857 21.8861 45.3262 22.6826C45.3262 23.3328 44.9577 23.8566 44.2319 24.1812L40.5785 24.7889C38.89 25.0305 37.5295 25.4391 36.4757 26.0572C34.6951 27.1368 33.8356 28.8667 33.8771 31.3505C33.8366 33.0804 34.3782 34.4846 35.4735 35.5113C36.4352 36.3607 37.7552 36.8211 39.3506 36.874C41.9492 36.8211 43.9961 36.1719 45.4588 34.8621V36.874H50.2065V22.5457C50.2065 20.2081 49.3774 18.5737 47.8327 17.7243M45.2341 28.9082C45.2341 30.5851 44.7735 31.7591 43.9141 32.4094C43.0536 33.0555 42.014 33.4008 40.947 33.3946C40.2617 33.3946 39.7191 33.2059 39.2585 32.8387C38.808 32.4094 38.5732 31.812 38.5732 30.9201C38.5732 29.9349 38.9416 29.2328 39.709 28.7184C40.1696 28.4353 40.9369 28.205 41.9391 28.0578L44.3129 27.45L45.223 26.9367V28.9071H45.2331L45.2341 28.9082Z" fill="#A7A7A7"/>
<path d="M31.0992 11.5078H26.3516V36.8634H31.0992V11.5078Z" fill="#A7A7A7"/>
<path d="M63.1019 16.6563L61.2706 17.1696C60.0022 17.683 58.8563 18.5738 57.8946 19.9262V17.4527L53.3828 17.4113V36.8752H58.0789V27.5674C58.0789 25.9745 58.2631 24.8523 58.6721 24.1502C58.9889 23.4056 59.5821 22.7979 60.309 22.2845C61.0712 21.7369 61.9772 21.4414 62.9085 21.4362L64.3612 21.5306L64.3207 16.5723L63.1019 16.6552V16.6563Z" fill="#A7A7A7"/>
<path d="M93.8007 2.43164L82.3516 14.1714L85.3591 17.263L96.8082 5.52318L93.8007 2.43164Z" fill="#A7A7A7"/>
<path d="M77.3292 0H73.0938V12.5881H77.3292V0Z" fill="#A7A7A7"/>
<path d="M99.9965 22.127H87.4531V26.4765H99.9965V22.127Z" fill="#A7A7A7"/>
</g>
<defs>
<clipPath id="clip0_793_3589">
<rect width="100" height="37" fill="white"/>
</clipPath>
</defs>
</svg>
