<svg width="182" height="52" viewBox="0 0 182 52" fill="none" xmlns="http://www.w3.org/2000/svg">
<path d="M112.677 23.2011C108.615 23.2011 105.11 24.5857 102.222 27.4141C99.2564 30.2424 97.82 33.66 97.82 37.608C97.82 41.5559 99.2564 44.9733 102.222 47.728C105.11 50.5565 108.615 52 112.677 52C116.738 52 120.321 50.5571 123.271 47.728C126.159 44.9733 127.611 41.5558 127.611 37.608C127.611 33.6602 126.159 30.2426 123.271 27.4141C120.322 24.5859 116.739 23.2011 112.677 23.2011ZM118.252 42.9257C116.739 44.443 114.885 45.15 112.677 45.15C111.648 45.1671 110.627 44.978 109.68 44.5948C108.733 44.2117 107.881 43.643 107.179 42.9257C105.666 41.4084 104.832 39.6408 104.832 37.5931C104.816 36.5892 105.017 35.593 105.421 34.6657C105.824 33.7385 106.423 32.8999 107.179 32.2016C108.692 30.6842 110.546 29.9625 112.677 30.0362C114.885 29.9626 116.739 30.6991 118.314 32.2016C119.766 33.6446 120.522 35.4277 120.6 37.5931C120.558 39.5911 119.718 41.4985 118.252 42.9257Z" fill="#EF3829"/>
<path d="M18.4397 22.9507C20.6482 22.9507 22.6404 23.5399 24.571 24.7183C26.3124 25.8713 27.7115 27.4343 28.6326 29.2554H36.138C35.0415 25.4401 32.8948 22.2878 29.6673 19.8571C26.3623 17.3528 22.5785 16.1008 18.4396 16.1744C13.2814 16.1161 9.00349 17.8243 5.43599 21.3597C1.79147 24.851 0 28.9903 0 33.9251C0 38.7864 1.79147 43.073 5.43613 46.5495C9.01907 49.9671 13.2815 51.6759 18.4397 51.6759C22.5787 51.6759 26.3623 50.4973 29.6674 48.052C32.9105 45.5478 35.0417 42.4698 36.1382 38.6537H28.6325C27.6903 40.4616 26.2952 42.02 24.5708 43.1908C22.6404 44.3103 20.6482 44.8996 18.4396 44.8996C15.2736 44.8996 12.5864 43.7801 10.3934 41.6735C8.12319 39.5081 7.02667 36.945 7.08855 33.9251C7.02743 30.9053 8.12319 28.3421 10.3934 26.1767C12.6019 24.0555 15.2738 22.9507 18.4397 22.9507Z" fill="#EF3829"/>
<path d="M72.199 24.9097C69.7128 23.6576 66.9635 23.0683 63.8749 23.1273C59.0565 23.0536 55.6898 24.3057 53.7593 26.751C52.5239 28.2535 51.9061 30.2423 51.6899 32.7317H58.8564C58.9954 31.5532 59.4126 30.7578 59.8913 30.2274C60.6479 29.2994 61.8834 28.8428 63.675 28.9164C65.1878 28.8427 66.3621 29.1079 67.1806 29.5793C67.9991 29.977 68.3543 30.7578 68.4161 31.8773C68.4161 32.7906 67.8602 33.5272 66.7638 33.9839L61.2494 34.8384C58.7013 35.1773 56.6472 35.7517 55.0565 36.6208C52.3694 38.1381 51.072 40.5688 51.1339 44.0599C51.0727 46.4905 51.8907 48.4645 53.5431 49.908C54.9947 51.1013 56.987 51.7495 59.3955 51.8231C63.3179 51.7495 66.407 50.836 68.6153 48.9948V51.8231H75.7818V31.686C75.7818 28.401 74.5311 26.1037 72.199 24.9097ZM68.2761 40.6275C68.2761 42.9844 67.581 44.6343 66.2837 45.5476C64.9855 46.456 63.4152 46.9415 61.8052 46.9322C60.7704 46.9322 59.9518 46.6671 59.2569 46.1515C58.5774 45.5475 58.2222 44.7085 58.2222 43.4551C58.2222 42.0704 58.7781 41.0834 59.9364 40.3615C60.6313 39.9637 61.7897 39.6397 63.3033 39.4335L66.8862 38.5791L68.2607 37.8573V40.6266L68.2761 40.6275Z" fill="#EF3829"/>
<path d="M46.9487 16.1744H39.7828V51.8083H46.9487V16.1744Z" fill="#EF3829"/>
<path d="M95.2563 23.4075L92.4919 24.1292C90.577 24.851 88.8473 26.1031 87.3955 28.0034V24.527L80.5847 24.4687V51.8232H87.6734V38.7422C87.6734 36.503 87.9514 34.9269 88.5692 33.94C89.0479 32.8941 89.9436 32.0397 91.04 31.3179C92.1903 30.5491 93.559 30.133 94.9635 30.1253L97.1566 30.2579L97.0954 23.2901L95.2563 23.4075Z" fill="#EF3829"/>
<path d="M141.588 3.41757L124.306 19.9166L128.846 24.2621L146.128 7.76313L141.588 3.41757Z" fill="#EF3829"/>
<path d="M116.723 0H110.329V17.6918H116.723V0Z" fill="#EF3829"/>
<path d="M150.946 31.0968H132.012V37.2102H150.946V31.0968Z" fill="#EF3829"/>
<path d="M158.928 29.8344V51.4585H154.135V29.8344H158.928Z" fill="black"/>
<path d="M170.908 51.4585H162.872V29.8344H170.975C173.255 29.8344 175.218 30.2673 176.864 31.1331C178.509 31.9919 179.775 33.2272 180.661 34.8392C181.554 36.4512 182 38.3799 182 40.6254C182 42.8779 181.554 44.8136 180.661 46.4326C179.775 48.0516 178.502 49.294 176.842 50.1598C175.189 51.0256 173.211 51.4585 170.908 51.4585ZM167.665 47.5413H170.709C172.126 47.5413 173.318 47.3019 174.285 46.8233C175.259 46.3376 175.989 45.5879 176.476 44.5743C176.971 43.5536 177.218 42.2373 177.218 40.6254C177.218 39.0275 176.971 37.7217 176.476 36.7081C175.989 35.6945 175.262 34.9483 174.296 34.4697C173.329 33.991 172.137 33.7517 170.72 33.7517H167.665V47.5413Z" fill="black"/>
</svg>
