<svg width="271" height="218" viewBox="0 0 271 218" fill="none" xmlns="http://www.w3.org/2000/svg">
<path d="M2 166.75H5.775L12.25 178.9H12.425C12.1083 176.733 11.95 174.683 11.95 172.75V166.75H15.475V184H11.7L5.2 171.875H5.05C5.36667 174.208 5.525 176.25 5.525 178V184H2V166.75ZM24.216 184.3C22.2327 184.3 20.6827 183.692 19.566 182.475C18.4493 181.242 17.891 179.592 17.891 177.525C17.891 175.458 18.4493 173.817 19.566 172.6C20.6827 171.367 22.2327 170.75 24.216 170.75C25.516 170.75 26.641 171.033 27.591 171.6C28.541 172.15 29.266 172.933 29.766 173.95C30.266 174.967 30.516 176.158 30.516 177.525C30.516 178.892 30.266 180.083 29.766 181.1C29.266 182.117 28.541 182.908 27.591 183.475C26.641 184.025 25.516 184.3 24.216 184.3ZM21.816 177.525C21.816 178.758 21.9993 179.7 22.366 180.35C22.7493 181 23.3577 181.325 24.191 181.325C25.8077 181.325 26.616 180.058 26.616 177.525C26.616 174.975 25.8077 173.7 24.191 173.7C22.6077 173.7 21.816 174.975 21.816 177.525ZM38.1281 173.9H36.7281V171.65L38.3031 171.325L39.4531 167.85H42.0031V171.05H45.3781V173.9H42.0031V179.6C42.0031 180.117 42.1115 180.517 42.3281 180.8C42.5448 181.083 42.8698 181.225 43.3031 181.225C43.8698 181.225 44.5615 181.067 45.3781 180.75V183.85C44.9948 183.983 44.5031 184.092 43.9031 184.175C43.3198 184.258 42.7865 184.3 42.3031 184.3C40.9865 184.3 39.9615 183.933 39.2281 183.2C38.4948 182.45 38.1281 181.45 38.1281 180.2V173.9ZM51.5711 171.05V184H47.6961V171.05H51.5711ZM47.5211 167.55C47.5211 166.983 47.6961 166.542 48.0461 166.225C48.4128 165.908 48.9461 165.75 49.6461 165.75C50.3461 165.75 50.8711 165.908 51.2211 166.225C51.5711 166.542 51.7461 166.983 51.7461 167.55C51.7461 168.133 51.5711 168.583 51.2211 168.9C50.8711 169.217 50.3461 169.375 49.6461 169.375C48.9461 169.375 48.4128 169.217 48.0461 168.9C47.6961 168.567 47.5211 168.117 47.5211 167.55ZM64.8965 183.625C64.3298 183.842 63.6548 184.008 62.8715 184.125C62.1048 184.242 61.3965 184.3 60.7465 184.3C58.6132 184.3 56.9715 183.683 55.8215 182.45C54.6882 181.217 54.1215 179.55 54.1215 177.45C54.1215 175.4 54.6382 173.775 55.6715 172.575C56.7215 171.358 58.1632 170.75 59.9965 170.75C61.7632 170.75 63.1548 171.317 64.1715 172.45C65.1882 173.583 65.6965 175.15 65.6965 177.15C65.6965 177.75 65.6632 178.25 65.5965 178.65H57.7965C57.9298 180.533 59.0632 181.475 61.1965 181.475C62.4632 181.475 63.6965 181.242 64.8965 180.775V183.625ZM62.2465 176.425V176.15C62.2465 175.333 62.0632 174.667 61.6965 174.15C61.3298 173.633 60.7965 173.375 60.0965 173.375C59.3465 173.375 58.7798 173.683 58.3965 174.3C58.0132 174.9 57.8048 175.608 57.7715 176.425H62.2465ZM71.5277 171.05L71.8027 172.625H72.0277C72.5111 172.075 73.0944 171.625 73.7777 171.275C74.4777 170.925 75.2194 170.75 76.0027 170.75C77.1361 170.75 78.0361 171.117 78.7027 171.85C79.3861 172.567 79.7277 173.508 79.7277 174.675V184H75.8527V175.875C75.8527 175.325 75.7027 174.9 75.4027 174.6C75.1027 174.283 74.6861 174.125 74.1527 174.125C73.5027 174.125 72.8277 174.375 72.1277 174.875V184H68.2527V174.6L67.8277 171.05H71.5277ZM92.9727 183.625C92.406 183.842 91.731 184.008 90.9477 184.125C90.181 184.242 89.4727 184.3 88.8227 184.3C86.6893 184.3 85.0477 183.683 83.8977 182.45C82.7643 181.217 82.1977 179.55 82.1977 177.45C82.1977 175.4 82.7143 173.775 83.7477 172.575C84.7977 171.358 86.2393 170.75 88.0727 170.75C89.8393 170.75 91.231 171.317 92.2477 172.45C93.2643 173.583 93.7727 175.15 93.7727 177.15C93.7727 177.75 93.7393 178.25 93.6727 178.65H85.8727C86.006 180.533 87.1393 181.475 89.2727 181.475C90.5393 181.475 91.7727 181.242 92.9727 180.775V183.625ZM90.3227 176.425V176.15C90.3227 175.333 90.1393 174.667 89.7727 174.15C89.406 173.633 88.8727 173.375 88.1727 173.375C87.4227 173.375 86.856 173.683 86.4727 174.3C86.0893 174.9 85.881 175.608 85.8477 176.425H90.3227ZM95.5789 174.8C95.5789 173.483 96.0539 172.483 97.0039 171.8C97.9706 171.1 99.2956 170.75 100.979 170.75C101.546 170.75 102.154 170.783 102.804 170.85C103.454 170.917 103.962 171.008 104.329 171.125V174.175C103.796 173.958 103.187 173.775 102.504 173.625C101.821 173.458 101.262 173.375 100.829 173.375C100.362 173.375 99.9789 173.467 99.6789 173.65C99.3956 173.833 99.2539 174.108 99.2539 174.475C99.2539 174.808 99.3622 175.067 99.5789 175.25C99.8122 175.433 100.154 175.617 100.604 175.8L101.754 176.2C102.871 176.583 103.729 177.058 104.329 177.625C104.946 178.192 105.254 179.017 105.254 180.1C105.254 181.417 104.779 182.45 103.829 183.2C102.896 183.933 101.554 184.3 99.8039 184.3C99.0706 184.3 98.2872 184.233 97.4539 184.1C96.6206 183.983 95.9539 183.817 95.4539 183.6V180.5C96.1539 180.833 96.9039 181.108 97.7039 181.325C98.5039 181.542 99.2122 181.65 99.8289 181.65C100.379 181.65 100.796 181.55 101.079 181.35C101.379 181.133 101.529 180.833 101.529 180.45C101.529 180.117 101.412 179.867 101.179 179.7C100.962 179.517 100.579 179.325 100.029 179.125L98.9789 178.75C97.9456 178.383 97.1206 177.908 96.5039 177.325C95.8872 176.725 95.5789 175.883 95.5789 174.8ZM115.937 171.05L116.212 172.625H116.437C116.92 172.075 117.504 171.625 118.187 171.275C118.887 170.925 119.629 170.75 120.412 170.75C121.545 170.75 122.445 171.117 123.112 171.85C123.795 172.567 124.137 173.508 124.137 174.675V184H120.262V175.875C120.262 175.325 120.112 174.9 119.812 174.6C119.512 174.283 119.095 174.125 118.562 174.125C117.912 174.125 117.237 174.375 116.537 174.875V184H112.662V174.6L112.237 171.05H115.937ZM132.932 184.3C130.949 184.3 129.399 183.692 128.282 182.475C127.165 181.242 126.607 179.592 126.607 177.525C126.607 175.458 127.165 173.817 128.282 172.6C129.399 171.367 130.949 170.75 132.932 170.75C134.232 170.75 135.357 171.033 136.307 171.6C137.257 172.15 137.982 172.933 138.482 173.95C138.982 174.967 139.232 176.158 139.232 177.525C139.232 178.892 138.982 180.083 138.482 181.1C137.982 182.117 137.257 182.908 136.307 183.475C135.357 184.025 134.232 184.3 132.932 184.3ZM130.532 177.525C130.532 178.758 130.715 179.7 131.082 180.35C131.465 181 132.074 181.325 132.907 181.325C134.524 181.325 135.332 180.058 135.332 177.525C135.332 174.975 134.524 173.7 132.907 173.7C131.324 173.7 130.532 174.975 130.532 177.525ZM141.888 173.9H140.488V171.65L142.063 171.325L143.213 167.85H145.763V171.05H149.138V173.9H145.763V179.6C145.763 180.117 145.871 180.517 146.088 180.8C146.305 181.083 146.63 181.225 147.063 181.225C147.63 181.225 148.321 181.067 149.138 180.75V183.85C148.755 183.983 148.263 184.092 147.663 184.175C147.08 184.258 146.546 184.3 146.063 184.3C144.746 184.3 143.721 183.933 142.988 183.2C142.255 182.45 141.888 181.45 141.888 180.2V173.9ZM155.331 171.05V184H151.456V171.05H155.331ZM151.281 167.55C151.281 166.983 151.456 166.542 151.806 166.225C152.173 165.908 152.706 165.75 153.406 165.75C154.106 165.75 154.631 165.908 154.981 166.225C155.331 166.542 155.506 166.983 155.506 167.55C155.506 168.133 155.331 168.583 154.981 168.9C154.631 169.217 154.106 169.375 153.406 169.375C152.706 169.375 152.173 169.217 151.806 168.9C151.456 168.567 151.281 168.117 151.281 167.55ZM158.831 169.775C158.831 168.442 159.231 167.392 160.031 166.625C160.848 165.842 162.023 165.45 163.556 165.45C164.39 165.45 165.273 165.575 166.206 165.825V168.975C165.29 168.658 164.531 168.5 163.931 168.5C162.948 168.5 162.456 169.033 162.456 170.1V171.375H166.131V174.25H162.706V184H158.831V174.25H157.456V172.15L158.831 171.775V169.775ZM172.006 171.05V184H168.131V171.05H172.006ZM167.956 167.55C167.956 166.983 168.131 166.542 168.481 166.225C168.847 165.908 169.381 165.75 170.081 165.75C170.781 165.75 171.306 165.908 171.656 166.225C172.006 166.542 172.181 166.983 172.181 167.55C172.181 168.133 172.006 168.583 171.656 168.9C171.306 169.217 170.781 169.375 170.081 169.375C169.381 169.375 168.847 169.217 168.481 168.9C168.131 168.567 167.956 168.117 167.956 167.55ZM183.781 174.3C183.431 174.167 183.014 174.05 182.531 173.95C182.064 173.85 181.639 173.8 181.256 173.8C180.373 173.8 179.706 174.108 179.256 174.725C178.806 175.342 178.581 176.258 178.581 177.475C178.581 179.992 179.514 181.25 181.381 181.25C181.764 181.25 182.181 181.2 182.631 181.1C183.081 181 183.464 180.883 183.781 180.75V183.85C182.964 184.15 182.056 184.3 181.056 184.3C179.723 184.3 178.564 184.025 177.581 183.475C176.614 182.908 175.864 182.117 175.331 181.1C174.814 180.067 174.556 178.867 174.556 177.5C174.556 176.15 174.814 174.967 175.331 173.95C175.864 172.933 176.623 172.15 177.606 171.6C178.589 171.033 179.748 170.75 181.081 170.75C181.948 170.75 182.848 170.875 183.781 171.125V174.3ZM193.19 182.7H192.99C192.507 183.2 191.957 183.592 191.34 183.875C190.723 184.158 190.057 184.3 189.34 184.3C188.223 184.3 187.307 183.958 186.59 183.275C185.873 182.592 185.515 181.608 185.515 180.325C185.515 178.942 185.94 177.917 186.79 177.25C187.657 176.567 188.857 176.225 190.39 176.225C190.923 176.225 191.623 176.275 192.49 176.375V175.65C192.49 174.35 191.732 173.7 190.215 173.7C189.648 173.7 189.032 173.783 188.365 173.95C187.698 174.117 187.107 174.325 186.59 174.575V171.6C187.873 171.033 189.29 170.75 190.84 170.75C192.59 170.75 193.948 171.158 194.915 171.975C195.882 172.792 196.365 173.983 196.365 175.55V180.425L196.79 184H193.74L193.19 182.7ZM188.84 180.2C188.84 180.733 188.982 181.158 189.265 181.475C189.548 181.775 189.948 181.925 190.465 181.925C191.148 181.925 191.832 181.667 192.515 181.15L192.49 181.075V178.425L191.09 178.375C189.59 178.375 188.84 178.983 188.84 180.2ZM208.073 174.3C207.723 174.167 207.306 174.05 206.823 173.95C206.356 173.85 205.931 173.8 205.548 173.8C204.665 173.8 203.998 174.108 203.548 174.725C203.098 175.342 202.873 176.258 202.873 177.475C202.873 179.992 203.806 181.25 205.673 181.25C206.056 181.25 206.473 181.2 206.923 181.1C207.373 181 207.756 180.883 208.073 180.75V183.85C207.256 184.15 206.348 184.3 205.348 184.3C204.015 184.3 202.856 184.025 201.873 183.475C200.906 182.908 200.156 182.117 199.623 181.1C199.106 180.067 198.848 178.867 198.848 177.5C198.848 176.15 199.106 174.967 199.623 173.95C200.156 172.933 200.915 172.15 201.898 171.6C202.881 171.033 204.04 170.75 205.373 170.75C206.24 170.75 207.14 170.875 208.073 171.125V174.3ZM214.852 171.05V184H210.977V171.05H214.852ZM210.802 167.55C210.802 166.983 210.977 166.542 211.327 166.225C211.694 165.908 212.227 165.75 212.927 165.75C213.627 165.75 214.152 165.908 214.502 166.225C214.852 166.542 215.027 166.983 215.027 167.55C215.027 168.133 214.852 168.583 214.502 168.9C214.152 169.217 213.627 169.375 212.927 169.375C212.227 169.375 211.694 169.217 211.327 168.9C210.977 168.567 210.802 168.117 210.802 167.55ZM223.728 184.3C221.744 184.3 220.194 183.692 219.078 182.475C217.961 181.242 217.403 179.592 217.403 177.525C217.403 175.458 217.961 173.817 219.078 172.6C220.194 171.367 221.744 170.75 223.728 170.75C225.028 170.75 226.153 171.033 227.103 171.6C228.053 172.15 228.778 172.933 229.278 173.95C229.778 174.967 230.028 176.158 230.028 177.525C230.028 178.892 229.778 180.083 229.278 181.1C228.778 182.117 228.053 182.908 227.103 183.475C226.153 184.025 225.028 184.3 223.728 184.3ZM221.328 177.525C221.328 178.758 221.511 179.7 221.878 180.35C222.261 181 222.869 181.325 223.703 181.325C225.319 181.325 226.128 180.058 226.128 177.525C226.128 174.975 225.319 173.7 223.703 173.7C222.119 173.7 221.328 174.975 221.328 177.525ZM235.859 171.05L236.134 172.625H236.359C236.842 172.075 237.425 171.625 238.109 171.275C238.809 170.925 239.55 170.75 240.334 170.75C241.467 170.75 242.367 171.117 243.034 171.85C243.717 172.567 244.059 173.508 244.059 174.675V184H240.184V175.875C240.184 175.325 240.034 174.9 239.734 174.6C239.434 174.283 239.017 174.125 238.484 174.125C237.834 174.125 237.159 174.375 236.459 174.875V184H232.584V174.6L232.159 171.05H235.859ZM257.304 183.625C256.737 183.842 256.062 184.008 255.279 184.125C254.512 184.242 253.804 184.3 253.154 184.3C251.02 184.3 249.379 183.683 248.229 182.45C247.095 181.217 246.529 179.55 246.529 177.45C246.529 175.4 247.045 173.775 248.079 172.575C249.129 171.358 250.57 170.75 252.404 170.75C254.17 170.75 255.562 171.317 256.579 172.45C257.595 173.583 258.104 175.15 258.104 177.15C258.104 177.75 258.07 178.25 258.004 178.65H250.204C250.337 180.533 251.47 181.475 253.604 181.475C254.87 181.475 256.104 181.242 257.304 180.775V183.625ZM254.654 176.425V176.15C254.654 175.333 254.47 174.667 254.104 174.15C253.737 173.633 253.204 173.375 252.504 173.375C251.754 173.375 251.187 173.683 250.804 174.3C250.42 174.9 250.212 175.608 250.179 176.425H254.654ZM259.91 174.8C259.91 173.483 260.385 172.483 261.335 171.8C262.302 171.1 263.627 170.75 265.31 170.75C265.877 170.75 266.485 170.783 267.135 170.85C267.785 170.917 268.293 171.008 268.66 171.125V174.175C268.127 173.958 267.518 173.775 266.835 173.625C266.152 173.458 265.593 173.375 265.16 173.375C264.693 173.375 264.31 173.467 264.01 173.65C263.727 173.833 263.585 174.108 263.585 174.475C263.585 174.808 263.693 175.067 263.91 175.25C264.143 175.433 264.485 175.617 264.935 175.8L266.085 176.2C267.202 176.583 268.06 177.058 268.66 177.625C269.277 178.192 269.585 179.017 269.585 180.1C269.585 181.417 269.11 182.45 268.16 183.2C267.227 183.933 265.885 184.3 264.135 184.3C263.402 184.3 262.618 184.233 261.785 184.1C260.952 183.983 260.285 183.817 259.785 183.6V180.5C260.485 180.833 261.235 181.108 262.035 181.325C262.835 181.542 263.543 181.65 264.16 181.65C264.71 181.65 265.127 181.55 265.41 181.35C265.71 181.133 265.86 180.833 265.86 180.45C265.86 180.117 265.743 179.867 265.51 179.7C265.293 179.517 264.91 179.325 264.36 179.125L263.31 178.75C262.277 178.383 261.452 177.908 260.835 177.325C260.218 176.725 259.91 175.883 259.91 174.8Z" fill="#B4B4B4"/>
<path d="M65.3945 210.842L69.584 198.781H71.625L66.3613 213H64.9062L65.3945 210.842ZM61.4785 198.781L65.6289 210.842L66.1465 213H64.6914L59.4375 198.781H61.4785ZM79.457 210.559V202.434H81.2734V213H79.5449L79.457 210.559ZM79.7988 208.332L80.5508 208.312C80.5508 209.016 80.4759 209.667 80.3262 210.266C80.1829 210.858 79.9486 211.372 79.623 211.809C79.2975 212.245 78.8711 212.587 78.3438 212.834C77.8164 213.075 77.1751 213.195 76.4199 213.195C75.9056 213.195 75.4336 213.12 75.0039 212.971C74.5807 212.821 74.2161 212.59 73.9102 212.277C73.6042 211.965 73.3665 211.558 73.1973 211.057C73.0345 210.555 72.9531 209.953 72.9531 209.25V202.434H74.7598V209.27C74.7598 209.745 74.8118 210.139 74.916 210.451C75.0267 210.757 75.1732 211.001 75.3555 211.184C75.5443 211.359 75.7526 211.483 75.9805 211.555C76.2148 211.626 76.4557 211.662 76.7031 211.662C77.4714 211.662 78.0801 211.516 78.5293 211.223C78.9785 210.923 79.3008 210.523 79.4961 210.021C79.6979 209.514 79.7988 208.951 79.7988 208.332ZM88.4121 213.195C87.6764 213.195 87.0091 213.072 86.4102 212.824C85.8177 212.57 85.3066 212.215 84.877 211.76C84.4538 211.304 84.1283 210.764 83.9004 210.139C83.6725 209.514 83.5586 208.83 83.5586 208.088V207.678C83.5586 206.818 83.6855 206.053 83.9395 205.383C84.1934 204.706 84.5384 204.133 84.9746 203.664C85.4108 203.195 85.9056 202.84 86.459 202.6C87.0124 202.359 87.5853 202.238 88.1777 202.238C88.9329 202.238 89.584 202.368 90.1309 202.629C90.6842 202.889 91.1367 203.254 91.4883 203.723C91.8398 204.185 92.1003 204.732 92.2695 205.363C92.4388 205.988 92.5234 206.672 92.5234 207.414V208.225H84.6328V206.75H90.7168V206.613C90.6908 206.145 90.5931 205.689 90.4238 205.246C90.2611 204.803 90.0007 204.439 89.6426 204.152C89.2845 203.866 88.7962 203.723 88.1777 203.723C87.7676 203.723 87.39 203.811 87.0449 203.986C86.6999 204.156 86.4036 204.41 86.1562 204.748C85.9089 205.087 85.7168 205.5 85.5801 205.988C85.4434 206.477 85.375 207.04 85.375 207.678V208.088C85.375 208.589 85.4434 209.061 85.5801 209.504C85.7233 209.94 85.9284 210.324 86.1953 210.656C86.4688 210.988 86.7975 211.249 87.1816 211.438C87.5723 211.626 88.015 211.721 88.5098 211.721C89.1478 211.721 89.6882 211.59 90.1309 211.33C90.5736 211.07 90.9609 210.721 91.293 210.285L92.3867 211.154C92.1589 211.499 91.8691 211.828 91.5176 212.141C91.166 212.453 90.7331 212.707 90.2188 212.902C89.7109 213.098 89.1087 213.195 88.4121 213.195ZM96.5957 198V213H94.7793V198H96.5957ZM102.709 211.369L105.6 202.434H107.445L103.646 213H102.436L102.709 211.369ZM100.297 202.434L103.275 211.418L103.48 213H102.27L98.4414 202.434H100.297ZM113.432 213.195C112.696 213.195 112.029 213.072 111.43 212.824C110.837 212.57 110.326 212.215 109.896 211.76C109.473 211.304 109.148 210.764 108.92 210.139C108.692 209.514 108.578 208.83 108.578 208.088V207.678C108.578 206.818 108.705 206.053 108.959 205.383C109.213 204.706 109.558 204.133 109.994 203.664C110.43 203.195 110.925 202.84 111.479 202.6C112.032 202.359 112.605 202.238 113.197 202.238C113.952 202.238 114.604 202.368 115.15 202.629C115.704 202.889 116.156 203.254 116.508 203.723C116.859 204.185 117.12 204.732 117.289 205.363C117.458 205.988 117.543 206.672 117.543 207.414V208.225H109.652V206.75H115.736V206.613C115.71 206.145 115.613 205.689 115.443 205.246C115.281 204.803 115.02 204.439 114.662 204.152C114.304 203.866 113.816 203.723 113.197 203.723C112.787 203.723 112.41 203.811 112.064 203.986C111.719 204.156 111.423 204.41 111.176 204.748C110.928 205.087 110.736 205.5 110.6 205.988C110.463 206.477 110.395 207.04 110.395 207.678V208.088C110.395 208.589 110.463 209.061 110.6 209.504C110.743 209.94 110.948 210.324 111.215 210.656C111.488 210.988 111.817 211.249 112.201 211.438C112.592 211.626 113.035 211.721 113.529 211.721C114.167 211.721 114.708 211.59 115.15 211.33C115.593 211.07 115.98 210.721 116.312 210.285L117.406 211.154C117.178 211.499 116.889 211.828 116.537 212.141C116.186 212.453 115.753 212.707 115.238 212.902C114.73 213.098 114.128 213.195 113.432 213.195ZM126.41 204.533V213H124.594V202.434H126.312L126.41 204.533ZM126.039 207.316L125.199 207.287C125.206 206.564 125.3 205.897 125.482 205.285C125.665 204.667 125.935 204.13 126.293 203.674C126.651 203.218 127.097 202.867 127.631 202.619C128.165 202.365 128.783 202.238 129.486 202.238C129.981 202.238 130.437 202.31 130.854 202.453C131.27 202.59 131.632 202.808 131.938 203.107C132.243 203.407 132.481 203.791 132.65 204.26C132.82 204.729 132.904 205.295 132.904 205.959V213H131.098V206.047C131.098 205.493 131.003 205.051 130.814 204.719C130.632 204.387 130.372 204.146 130.033 203.996C129.695 203.84 129.298 203.762 128.842 203.762C128.308 203.762 127.862 203.856 127.504 204.045C127.146 204.234 126.859 204.494 126.645 204.826C126.43 205.158 126.273 205.539 126.176 205.969C126.085 206.392 126.039 206.841 126.039 207.316ZM132.885 206.32L131.674 206.691C131.68 206.112 131.775 205.555 131.957 205.021C132.146 204.488 132.416 204.012 132.768 203.596C133.126 203.179 133.565 202.85 134.086 202.609C134.607 202.362 135.202 202.238 135.873 202.238C136.439 202.238 136.941 202.313 137.377 202.463C137.82 202.613 138.191 202.844 138.49 203.156C138.796 203.462 139.027 203.856 139.184 204.338C139.34 204.82 139.418 205.393 139.418 206.057V213H137.602V206.037C137.602 205.445 137.507 204.986 137.318 204.66C137.136 204.328 136.876 204.097 136.537 203.967C136.205 203.83 135.808 203.762 135.346 203.762C134.949 203.762 134.597 203.83 134.291 203.967C133.985 204.104 133.728 204.292 133.52 204.533C133.311 204.768 133.152 205.038 133.041 205.344C132.937 205.65 132.885 205.975 132.885 206.32ZM148.383 211.193V205.754C148.383 205.337 148.298 204.976 148.129 204.67C147.966 204.357 147.719 204.117 147.387 203.947C147.055 203.778 146.645 203.693 146.156 203.693C145.701 203.693 145.3 203.771 144.955 203.928C144.617 204.084 144.35 204.289 144.154 204.543C143.965 204.797 143.871 205.07 143.871 205.363H142.064C142.064 204.986 142.162 204.611 142.357 204.24C142.553 203.869 142.833 203.534 143.197 203.234C143.568 202.928 144.011 202.688 144.525 202.512C145.046 202.329 145.626 202.238 146.264 202.238C147.032 202.238 147.709 202.368 148.295 202.629C148.887 202.889 149.35 203.283 149.682 203.811C150.02 204.331 150.189 204.986 150.189 205.773V210.695C150.189 211.047 150.219 211.421 150.277 211.818C150.342 212.215 150.437 212.557 150.561 212.844V213H148.676C148.585 212.792 148.513 212.515 148.461 212.17C148.409 211.818 148.383 211.493 148.383 211.193ZM148.695 206.594L148.715 207.863H146.889C146.374 207.863 145.915 207.906 145.512 207.99C145.108 208.068 144.77 208.189 144.496 208.352C144.223 208.514 144.014 208.719 143.871 208.967C143.728 209.208 143.656 209.491 143.656 209.816C143.656 210.148 143.731 210.451 143.881 210.725C144.031 210.998 144.255 211.216 144.555 211.379C144.861 211.535 145.235 211.613 145.678 211.613C146.231 211.613 146.719 211.496 147.143 211.262C147.566 211.027 147.901 210.741 148.148 210.402C148.402 210.064 148.539 209.735 148.559 209.416L149.33 210.285C149.285 210.559 149.161 210.861 148.959 211.193C148.757 211.525 148.487 211.844 148.148 212.15C147.816 212.45 147.419 212.701 146.957 212.902C146.501 213.098 145.987 213.195 145.414 213.195C144.698 213.195 144.07 213.055 143.529 212.775C142.995 212.495 142.579 212.121 142.279 211.652C141.986 211.177 141.84 210.646 141.84 210.061C141.84 209.494 141.951 208.996 142.172 208.566C142.393 208.13 142.712 207.769 143.129 207.482C143.546 207.189 144.047 206.968 144.633 206.818C145.219 206.669 145.873 206.594 146.596 206.594H148.695ZM145.463 200.871L147.357 198H149.535L146.918 200.871H145.463ZM159.184 210.197C159.184 209.937 159.125 209.696 159.008 209.475C158.897 209.247 158.666 209.042 158.314 208.859C157.969 208.671 157.449 208.508 156.752 208.371C156.166 208.247 155.635 208.101 155.16 207.932C154.691 207.762 154.291 207.557 153.959 207.316C153.633 207.076 153.383 206.792 153.207 206.467C153.031 206.141 152.943 205.76 152.943 205.324C152.943 204.908 153.035 204.514 153.217 204.143C153.406 203.771 153.669 203.443 154.008 203.156C154.353 202.87 154.766 202.645 155.248 202.482C155.73 202.32 156.267 202.238 156.859 202.238C157.706 202.238 158.428 202.388 159.027 202.688C159.626 202.987 160.085 203.387 160.404 203.889C160.723 204.383 160.883 204.934 160.883 205.539H159.076C159.076 205.246 158.988 204.963 158.812 204.689C158.643 204.41 158.393 204.178 158.061 203.996C157.735 203.814 157.335 203.723 156.859 203.723C156.358 203.723 155.951 203.801 155.639 203.957C155.333 204.107 155.108 204.299 154.965 204.533C154.828 204.768 154.76 205.015 154.76 205.275C154.76 205.471 154.792 205.646 154.857 205.803C154.929 205.952 155.053 206.092 155.229 206.223C155.404 206.346 155.652 206.464 155.971 206.574C156.29 206.685 156.697 206.796 157.191 206.906C158.057 207.102 158.77 207.336 159.33 207.609C159.89 207.883 160.307 208.218 160.58 208.615C160.854 209.012 160.99 209.494 160.99 210.061C160.99 210.523 160.893 210.946 160.697 211.33C160.508 211.714 160.232 212.046 159.867 212.326C159.509 212.6 159.079 212.814 158.578 212.971C158.083 213.12 157.527 213.195 156.908 213.195C155.977 213.195 155.189 213.029 154.545 212.697C153.9 212.365 153.412 211.936 153.08 211.408C152.748 210.881 152.582 210.324 152.582 209.738H154.398C154.424 210.233 154.568 210.627 154.828 210.92C155.089 211.206 155.408 211.411 155.785 211.535C156.163 211.652 156.537 211.711 156.908 211.711C157.403 211.711 157.816 211.646 158.148 211.516C158.487 211.385 158.744 211.206 158.92 210.979C159.096 210.751 159.184 210.49 159.184 210.197ZM172.748 202.434V203.82H167.035V202.434H172.748ZM168.969 199.865H170.775V210.383C170.775 210.741 170.831 211.011 170.941 211.193C171.052 211.376 171.195 211.496 171.371 211.555C171.547 211.613 171.736 211.643 171.938 211.643C172.087 211.643 172.243 211.63 172.406 211.604C172.576 211.571 172.702 211.545 172.787 211.525L172.797 213C172.654 213.046 172.465 213.088 172.23 213.127C172.003 213.173 171.726 213.195 171.4 213.195C170.958 213.195 170.551 213.107 170.18 212.932C169.809 212.756 169.512 212.463 169.291 212.053C169.076 211.636 168.969 211.076 168.969 210.373V199.865ZM181.098 211.193V205.754C181.098 205.337 181.013 204.976 180.844 204.67C180.681 204.357 180.434 204.117 180.102 203.947C179.77 203.778 179.359 203.693 178.871 203.693C178.415 203.693 178.015 203.771 177.67 203.928C177.331 204.084 177.064 204.289 176.869 204.543C176.68 204.797 176.586 205.07 176.586 205.363H174.779C174.779 204.986 174.877 204.611 175.072 204.24C175.268 203.869 175.548 203.534 175.912 203.234C176.283 202.928 176.726 202.688 177.24 202.512C177.761 202.329 178.34 202.238 178.979 202.238C179.747 202.238 180.424 202.368 181.01 202.629C181.602 202.889 182.064 203.283 182.396 203.811C182.735 204.331 182.904 204.986 182.904 205.773V210.695C182.904 211.047 182.934 211.421 182.992 211.818C183.057 212.215 183.152 212.557 183.275 212.844V213H181.391C181.299 212.792 181.228 212.515 181.176 212.17C181.124 211.818 181.098 211.493 181.098 211.193ZM181.41 206.594L181.43 207.863H179.604C179.089 207.863 178.63 207.906 178.227 207.99C177.823 208.068 177.484 208.189 177.211 208.352C176.938 208.514 176.729 208.719 176.586 208.967C176.443 209.208 176.371 209.491 176.371 209.816C176.371 210.148 176.446 210.451 176.596 210.725C176.745 210.998 176.97 211.216 177.27 211.379C177.576 211.535 177.95 211.613 178.393 211.613C178.946 211.613 179.434 211.496 179.857 211.262C180.281 211.027 180.616 210.741 180.863 210.402C181.117 210.064 181.254 209.735 181.273 209.416L182.045 210.285C181.999 210.559 181.876 210.861 181.674 211.193C181.472 211.525 181.202 211.844 180.863 212.15C180.531 212.45 180.134 212.701 179.672 212.902C179.216 213.098 178.702 213.195 178.129 213.195C177.413 213.195 176.785 213.055 176.244 212.775C175.71 212.495 175.294 212.121 174.994 211.652C174.701 211.177 174.555 210.646 174.555 210.061C174.555 209.494 174.665 208.996 174.887 208.566C175.108 208.13 175.427 207.769 175.844 207.482C176.26 207.189 176.762 206.968 177.348 206.818C177.934 206.669 178.588 206.594 179.311 206.594H181.41ZM187.553 204.094V213H185.746V202.434H187.504L187.553 204.094ZM190.854 202.375L190.844 204.055C190.694 204.022 190.551 204.003 190.414 203.996C190.284 203.983 190.134 203.977 189.965 203.977C189.548 203.977 189.18 204.042 188.861 204.172C188.542 204.302 188.272 204.484 188.051 204.719C187.829 204.953 187.654 205.233 187.523 205.559C187.4 205.878 187.318 206.229 187.279 206.613L186.771 206.906C186.771 206.268 186.833 205.669 186.957 205.109C187.087 204.549 187.286 204.055 187.553 203.625C187.82 203.189 188.158 202.85 188.568 202.609C188.985 202.362 189.48 202.238 190.053 202.238C190.183 202.238 190.333 202.255 190.502 202.287C190.671 202.313 190.788 202.342 190.854 202.375ZM198.988 210.949V198H200.805V213H199.145L198.988 210.949ZM191.879 207.834V207.629C191.879 206.822 191.977 206.089 192.172 205.432C192.374 204.768 192.657 204.198 193.021 203.723C193.393 203.247 193.832 202.883 194.34 202.629C194.854 202.368 195.427 202.238 196.059 202.238C196.723 202.238 197.302 202.355 197.797 202.59C198.298 202.818 198.721 203.153 199.066 203.596C199.418 204.032 199.695 204.559 199.896 205.178C200.098 205.796 200.238 206.496 200.316 207.277V208.176C200.245 208.951 200.105 209.647 199.896 210.266C199.695 210.884 199.418 211.411 199.066 211.848C198.721 212.284 198.298 212.619 197.797 212.854C197.296 213.081 196.71 213.195 196.039 213.195C195.421 213.195 194.854 213.062 194.34 212.795C193.832 212.528 193.393 212.154 193.021 211.672C192.657 211.19 192.374 210.624 192.172 209.973C191.977 209.315 191.879 208.602 191.879 207.834ZM193.695 207.629V207.834C193.695 208.361 193.747 208.856 193.852 209.318C193.962 209.781 194.132 210.188 194.359 210.539C194.587 210.891 194.877 211.167 195.229 211.369C195.58 211.564 196 211.662 196.488 211.662C197.087 211.662 197.579 211.535 197.963 211.281C198.354 211.027 198.666 210.692 198.9 210.275C199.135 209.859 199.317 209.406 199.447 208.918V206.564C199.369 206.206 199.255 205.861 199.105 205.529C198.962 205.191 198.773 204.891 198.539 204.631C198.311 204.364 198.028 204.152 197.689 203.996C197.357 203.84 196.964 203.762 196.508 203.762C196.013 203.762 195.587 203.866 195.229 204.074C194.877 204.276 194.587 204.556 194.359 204.914C194.132 205.266 193.962 205.676 193.852 206.145C193.747 206.607 193.695 207.102 193.695 207.629ZM208.002 213.195C207.266 213.195 206.599 213.072 206 212.824C205.408 212.57 204.896 212.215 204.467 211.76C204.044 211.304 203.718 210.764 203.49 210.139C203.262 209.514 203.148 208.83 203.148 208.088V207.678C203.148 206.818 203.275 206.053 203.529 205.383C203.783 204.706 204.128 204.133 204.564 203.664C205.001 203.195 205.495 202.84 206.049 202.6C206.602 202.359 207.175 202.238 207.768 202.238C208.523 202.238 209.174 202.368 209.721 202.629C210.274 202.889 210.727 203.254 211.078 203.723C211.43 204.185 211.69 204.732 211.859 205.363C212.029 205.988 212.113 206.672 212.113 207.414V208.225H204.223V206.75H210.307V206.613C210.281 206.145 210.183 205.689 210.014 205.246C209.851 204.803 209.59 204.439 209.232 204.152C208.874 203.866 208.386 203.723 207.768 203.723C207.357 203.723 206.98 203.811 206.635 203.986C206.29 204.156 205.993 204.41 205.746 204.748C205.499 205.087 205.307 205.5 205.17 205.988C205.033 206.477 204.965 207.04 204.965 207.678V208.088C204.965 208.589 205.033 209.061 205.17 209.504C205.313 209.94 205.518 210.324 205.785 210.656C206.059 210.988 206.387 211.249 206.771 211.438C207.162 211.626 207.605 211.721 208.1 211.721C208.738 211.721 209.278 211.59 209.721 211.33C210.163 211.07 210.551 210.721 210.883 210.285L211.977 211.154C211.749 211.499 211.459 211.828 211.107 212.141C210.756 212.453 210.323 212.707 209.809 212.902C209.301 213.098 208.699 213.195 208.002 213.195Z" fill="#B4B4B4"/>
<circle cx="140" cy="70" r="70" fill="#E3E3E3" fill-opacity="0.38"/>
<path d="M165.904 87.2359L163.36 82.1474C161.813 79.0742 161.007 75.6817 161.005 72.2411V61.8747C161 56.604 159.073 51.5161 155.585 47.5647C152.097 43.6133 147.288 41.0698 142.059 40.411V34.8082C142.059 34.0904 141.773 33.4019 141.266 32.8943C140.758 32.3867 140.07 32.1016 139.352 32.1016C138.634 32.1016 137.946 32.3867 137.438 32.8943C136.93 33.4019 136.645 34.0904 136.645 34.8082V40.411C131.416 41.0698 126.607 43.6133 123.119 47.5647C119.631 51.5161 117.704 56.604 117.699 61.8747V72.2411C117.697 75.6817 116.891 79.0742 115.344 82.1474L112.8 87.2359C112.283 88.2725 112.04 89.4239 112.093 90.5809C112.147 91.738 112.495 92.8621 113.105 93.8465C113.715 94.831 114.567 95.6431 115.58 96.2057C116.592 96.7683 117.731 97.0628 118.89 97.0611H125.981C126.517 100.181 128.169 102.999 130.629 104.991C133.089 106.983 136.189 108.012 139.352 107.888C142.515 108.012 145.615 106.983 148.075 104.991C150.535 102.999 152.187 100.181 152.723 97.0611H159.814C160.972 97.0628 162.112 96.7683 163.124 96.2057C164.137 95.6431 164.989 94.831 165.599 93.8465C166.209 92.8621 166.557 91.738 166.611 90.5809C166.664 89.4239 166.421 88.2725 165.904 87.2359ZM139.352 102.474C137.615 102.574 135.893 102.097 134.454 101.119C133.015 100.14 131.94 98.7135 131.394 97.0611H147.31C146.764 98.7135 145.689 100.14 144.25 101.119C142.811 102.097 141.089 102.574 139.352 102.474ZM161.005 90.9982C160.886 91.1995 160.715 91.3657 160.511 91.4798C160.306 91.5939 160.075 91.6518 159.841 91.6478H118.89C118.661 91.6388 118.438 91.5732 118.241 91.4568C118.044 91.3405 117.88 91.1769 117.761 90.981C117.643 90.7851 117.576 90.5629 117.565 90.3344C117.554 90.1059 117.6 89.8782 117.699 89.6719L120.243 84.5834C122.144 80.7477 123.127 76.5221 123.112 72.2411V61.8747C123.112 57.5676 124.823 53.4369 127.869 50.3913C130.914 47.3458 135.045 45.6348 139.352 45.6348C143.659 45.6348 147.79 47.3458 150.835 50.3913C153.881 53.4369 155.592 57.5676 155.592 61.8747V72.2411C155.594 76.5264 156.595 80.7523 158.515 84.5834L161.005 89.6719C161.124 89.8726 161.187 90.1017 161.187 90.335C161.187 90.5684 161.124 90.7975 161.005 90.9982Z" fill="#CFCFCF"/>
<path d="M61 70.5L61.5 70C64.2614 67.2386 68.7386 67.2386 71.5 70V70C74.2614 72.7614 78.7386 72.7614 81.5 70V70C84.2614 67.2386 88.7386 67.2386 91.5 70L92 70.5" stroke="#CFCFCF" stroke-width="5" stroke-linecap="round"/>
<path d="M185 115.3L185.306 115C187.009 113.333 189.733 113.333 191.435 115V115C193.138 116.667 195.862 116.667 197.565 115V115C199.267 113.333 201.991 113.333 203.694 115L204 115.3" stroke="#CFCFCF" stroke-width="5" stroke-linecap="round"/>
<path d="M182 20.3L182.306 20C184.009 18.3329 186.733 18.3329 188.435 20V20C190.138 21.6671 192.862 21.6671 194.565 20V20C196.267 18.3329 198.991 18.3329 200.694 20L201 20.3" stroke="#CFCFCF" stroke-width="5" stroke-linecap="round"/>
</svg>
