<svg width="28" height="34" viewBox="0 0 28 34" fill="none" xmlns="http://www.w3.org/2000/svg">
<path d="M24.1413 24.7317L23 22.4491C22.3062 21.0706 21.9445 19.5488 21.9438 18.0055L21.9438 13.3554C21.9416 10.9911 21.0772 8.70881 19.5126 6.93633C17.948 5.16384 15.7906 4.02289 13.4449 3.72736V1.21412C13.4449 0.892118 13.317 0.583301 13.0893 0.355609C12.8616 0.127916 12.5528 0 12.2308 0C11.9088 0 11.5999 0.127916 11.3723 0.355609C11.1446 0.583301 11.0166 0.892118 11.0166 1.21412V3.72736C8.67093 4.02289 6.51355 5.16384 4.94893 6.93633C3.38432 8.70881 2.51992 10.9911 2.51778 13.3554L2.51778 18.0055C2.51704 19.5488 2.15531 21.0706 1.46149 22.4491L0.320211 24.7317C0.0883773 25.1967 -0.020732 25.7132 0.00324821 26.2322C0.0272284 26.7512 0.183502 27.2554 0.457223 27.697C0.730944 28.1386 1.11302 28.5029 1.56717 28.7553C2.02131 29.0077 2.53243 29.1397 3.05199 29.139H6.233C6.47345 30.5383 7.21444 31.8025 8.3179 32.696C9.42136 33.5895 10.812 34.0513 12.2308 33.9955C13.6495 34.0513 15.0402 33.5895 16.1436 32.696C17.2471 31.8025 17.9881 30.5383 18.2285 29.139H21.4095C21.9291 29.1397 22.4402 29.0077 22.8944 28.7553C23.3485 28.5029 23.7306 28.1386 24.0043 27.697C24.278 27.2554 24.4343 26.7512 24.4583 26.2322C24.4823 25.7132 24.3732 25.1967 24.1413 24.7317ZM12.2308 31.5672C11.4515 31.6119 10.6792 31.3981 10.0338 30.9591C9.38836 30.52 8.9059 29.8802 8.66124 29.139L15.8003 29.139C15.5556 29.8802 15.0732 30.52 14.4278 30.9591C13.7823 31.3981 13.0101 31.6119 12.2308 31.5672ZM21.9438 26.4193C21.8902 26.5097 21.8137 26.5842 21.722 26.6354C21.6303 26.6866 21.5267 26.7125 21.4217 26.7107L3.05199 26.7107C2.94945 26.7067 2.84951 26.6773 2.76116 26.6251C2.67282 26.5729 2.59883 26.4995 2.54586 26.4116C2.49288 26.3237 2.46258 26.2241 2.45768 26.1216C2.45278 26.0191 2.47343 25.917 2.51778 25.8244L3.65905 23.5419C4.5119 21.8213 4.95252 19.9258 4.94602 18.0055V13.3554C4.94602 11.4233 5.71352 9.57043 7.07968 8.20427C8.44583 6.83812 10.2987 6.07062 12.2308 6.07062C14.1628 6.07062 16.0157 6.83812 17.3819 8.20427C18.748 9.57043 19.5155 11.4233 19.5155 13.3554L19.5155 18.0055C19.5166 19.9277 19.9655 21.8233 20.8268 23.5419L21.9438 25.8244C21.9972 25.9144 22.0254 26.0172 22.0254 26.1219C22.0254 26.2266 21.9972 26.3293 21.9438 26.4193Z" fill="#B4B4B4"/>
<circle cx="20.1728" cy="9.04976" r="5.665" fill="#DE2121" stroke="#F5F5F5" stroke-width="2.5"/>
</svg>
