<svg width="30" height="30" viewBox="0 0 30 30" fill="none" xmlns="http://www.w3.org/2000/svg">
<path d="M14.9661 0C6.7079 0 0 6.72308 0 15C0 23.2769 6.7079 30 14.9661 30C23.2244 30 29.9323 23.2769 29.9323 15C29.9323 6.72308 23.2244 0 14.9661 0ZM14.9661 27.6923C7.98194 27.6923 2.30248 22 2.30248 15C2.30248 8 7.98194 2.30769 14.9661 2.30769C21.9503 2.30769 27.6298 8 27.6298 15C27.6298 22 21.9503 27.6923 14.9661 27.6923Z" fill="#7A7A7A"/>
<path d="M14.9712 6.1543C12.638 6.1543 10.75 8.0466 10.75 10.3851C10.75 11.0158 11.2719 11.5389 11.9012 11.5389C12.5306 11.5389 13.0525 11.0158 13.0525 10.3851C13.0525 9.32353 13.9121 8.46199 14.9712 8.46199C16.0304 8.46199 16.89 9.32353 16.89 10.3851C16.89 11.0005 16.5983 11.5697 16.1071 11.9389C14.6489 13.0004 13.82 14.5389 13.82 16.1389V16.5389C13.82 17.1697 14.3419 17.6928 14.9712 17.6928C15.6006 17.6928 16.1225 17.1697 16.1225 16.5389V16.1389C16.1225 14.9697 16.9667 14.1697 17.4732 13.8005C18.5477 13.0005 19.1924 11.7235 19.1924 10.3851C19.1924 8.0466 17.3044 6.1543 14.9712 6.1543Z" fill="#7A7A7A"/>
<path d="M14.9716 20C14.3422 20 13.8203 20.5231 13.8203 21.1538V22.4461C13.8203 23.0769 14.3422 23.6 14.9716 23.6C15.6009 23.6 16.1228 23.0769 16.1228 22.4461V21.1538C16.1228 20.5231 15.6009 20 14.9716 20Z" fill="#7A7A7A"/>
</svg>
