<svg width="35" height="35" viewBox="0 0 35 35" fill="none" xmlns="http://www.w3.org/2000/svg">
<path d="M17.0406 0C7.6377 0 0 7.6725 0 17.0792C0 26.4859 7.6377 34.1584 17.0406 34.1584C26.4436 34.1584 34.0813 26.5034 34.0813 17.0792C34.0813 7.65499 26.4436 0 17.0406 0ZM9.5078 29.3762C11.2206 26.9063 14.0345 25.3998 17.0406 25.3998C20.0468 25.3998 22.8607 26.8888 24.591 29.3762C22.3888 30.7426 19.8196 31.5308 17.0406 31.5308C14.2617 31.5308 11.71 30.7426 9.5078 29.3762ZM26.6708 27.7997C24.4511 24.6466 20.8857 22.7723 17.0406 22.7723C13.1956 22.7723 9.61267 24.6816 7.41049 27.7997C4.47426 25.1546 2.62164 21.3359 2.62164 17.0792C2.62164 9.10891 9.08834 2.62757 17.0406 2.62757C24.9929 2.62757 31.4596 9.10891 31.4596 17.0792C31.4596 21.3359 29.607 25.1546 26.6708 27.7997Z" fill="#EF3829"/>
<path d="M17.0385 7.00781C13.4206 7.00781 10.4844 9.95069 10.4844 13.5767C10.4844 17.2028 13.4206 20.1457 17.0385 20.1457C20.6563 20.1457 23.5926 17.2028 23.5926 13.5767C23.5926 9.95069 20.6563 7.00781 17.0385 7.00781ZM17.0385 17.5181C14.8712 17.5181 13.106 15.7489 13.106 13.5767C13.106 11.4046 14.8712 9.63538 17.0385 9.63538C19.2057 9.63538 20.9709 11.4046 20.9709 13.5767C20.9709 15.7489 19.2057 17.5181 17.0385 17.5181Z" fill="#EF3829"/>
</svg>
