<svg width="40" height="41" viewBox="0 0 40 41" fill="none" xmlns="http://www.w3.org/2000/svg">
<path d="M20 0C8.9641 0 0 9.00495 0 20.0453C0 31.0856 8.9641 40.0905 20 40.0905C31.0359 40.0905 40 31.1061 40 20.0453C40 8.98439 31.0359 0 20 0ZM11.159 34.4778C13.1692 31.579 16.4718 29.8109 20 29.8109C23.5282 29.8109 26.8308 31.5584 28.8615 34.4778C26.2769 36.0815 23.2615 37.0066 20 37.0066C16.7385 37.0066 13.7436 36.0815 11.159 34.4778ZM31.3026 32.6275C28.6974 28.9268 24.5128 26.727 20 26.727C15.4872 26.727 11.2821 28.968 8.69744 32.6275C5.25128 29.5231 3.07692 25.0412 3.07692 20.0453C3.07692 10.6908 10.6667 3.08389 20 3.08389C29.3333 3.08389 36.9231 10.6908 36.9231 20.0453C36.9231 25.0412 34.7487 29.5231 31.3026 32.6275Z" fill="#B4B4B4"/>
<path d="M19.997 8.22461C15.7508 8.22461 12.3047 11.6786 12.3047 15.9343C12.3047 20.1901 15.7508 23.644 19.997 23.644C24.2431 23.644 27.6893 20.1901 27.6893 15.9343C27.6893 11.6786 24.2431 8.22461 19.997 8.22461ZM19.997 20.5602C17.4534 20.5602 15.3816 18.4837 15.3816 15.9343C15.3816 13.385 17.4534 11.3085 19.997 11.3085C22.5406 11.3085 24.6124 13.385 24.6124 15.9343C24.6124 18.4837 22.5406 20.5602 19.997 20.5602Z" fill="#B4B4B4"/>
</svg>
